<svg width="15" height="16" viewBox="0 0 15 16" fill="none" xmlns="http://www.w3.org/2000/svg">
<path d="M12.75 15.917H2.25C1.65326 15.917 1.08097 15.6799 0.65901 15.258C0.237053 14.836 0 14.2637 0 13.667V1.66699C0 1.46808 0.0790176 1.27731 0.21967 1.13666C0.360322 0.99601 0.551088 0.916992 0.75 0.916992H11.25C11.4489 0.916992 11.6397 0.99601 11.7803 1.13666C11.921 1.27731 12 1.46808 12 1.66699V10.667H15V13.667C15 14.2637 14.7629 14.836 14.341 15.258C13.919 15.6799 13.3467 15.917 12.75 15.917ZM12 12.167V13.667C12 13.8659 12.079 14.0567 12.2197 14.1973C12.3603 14.338 12.5511 14.417 12.75 14.417C12.9489 14.417 13.1397 14.338 13.2803 14.1973C13.421 14.0567 13.5 13.8659 13.5 13.667V12.167H12ZM10.5 14.417V2.41699H1.5V13.667C1.5 13.8659 1.57902 14.0567 1.71967 14.1973C1.86032 14.338 2.05109 14.417 2.25 14.417H10.5ZM3 4.66699H9V6.16699H3V4.66699ZM3 7.66699H9V9.16699H3V7.66699ZM3 10.667H6.75V12.167H3V10.667Z" fill="#06A561"/>
</svg>
