<svg width="13" height="15" viewBox="0 0 13 15" fill="none" xmlns="http://www.w3.org/2000/svg">
<path fill-rule="evenodd" clip-rule="evenodd" d="M11.75 12.667C12.1642 12.667 12.5 13.0028 12.5 13.417C12.5 13.8312 12.1642 14.167 11.75 14.167H1.25C0.835786 14.167 0.5 13.8312 0.5 13.417C0.5 13.0028 0.835786 12.667 1.25 12.667H11.75ZM11.0022 1.10568L12.0613 2.16477C12.6462 2.74968 12.6462 3.69802 12.0613 4.28294L5.88331 10.4609C5.76874 10.5755 5.62009 10.6498 5.45968 10.6728L2 11.167L2.49424 7.70731C2.51716 7.54691 2.59148 7.39826 2.70606 7.28368L8.88406 1.10568C9.46897 0.520763 10.4173 0.520763 11.0022 1.10568ZM9.94314 2.16477L3.94183 8.16607L3.76549 9.4015L5.00092 9.22516L11.0022 3.22385L9.94314 2.16477Z" fill="#7E84A3"/>
</svg>
