<svg width="13" height="16" viewBox="0 0 13 16" fill="none" xmlns="http://www.w3.org/2000/svg">
<path d="M0.657227 15.7206C0.657227 14.171 1.2728 12.6848 2.36854 11.5891C3.46427 10.4934 4.9504 9.87781 6.5 9.87781C8.0496 9.87781 9.53573 10.4934 10.6315 11.5891C11.7272 12.6848 12.3428 14.171 12.3428 15.7206H10.8821C10.8821 14.5584 10.4204 13.4438 9.5986 12.622C8.7768 11.8002 7.6622 11.3385 6.5 11.3385C5.3378 11.3385 4.2232 11.8002 3.4014 12.622C2.5796 13.4438 2.11792 14.5584 2.11792 15.7206H0.657227ZM6.5 9.14746C4.0789 9.14746 2.11792 7.18648 2.11792 4.76538C2.11792 2.34428 4.0789 0.383301 6.5 0.383301C8.9211 0.383301 10.8821 2.34428 10.8821 4.76538C10.8821 7.18648 8.9211 9.14746 6.5 9.14746ZM6.5 7.68677C8.11407 7.68677 9.42139 6.37945 9.42139 4.76538C9.42139 3.15131 8.11407 1.84399 6.5 1.84399C4.88593 1.84399 3.57861 3.15131 3.57861 4.76538C3.57861 6.37945 4.88593 7.68677 6.5 7.68677Z" fill="#1E5EFF"/>
</svg>
