<svg width="13" height="13" viewBox="0 0 13 13" fill="none" xmlns="http://www.w3.org/2000/svg">
<path fill-rule="evenodd" clip-rule="evenodd" d="M6.49963 0.166992C9.95141 0.166992 12.7496 2.96521 12.7496 6.41699C12.7496 9.86877 9.95141 12.667 6.49963 12.667C3.04785 12.667 0.249634 9.86877 0.249634 6.41699C0.249634 2.96521 3.04785 0.166992 6.49963 0.166992ZM6.49963 1.41699C3.73821 1.41699 1.49963 3.65557 1.49963 6.41699C1.49963 9.17842 3.73821 11.417 6.49963 11.417C9.26106 11.417 11.4996 9.17842 11.4996 6.41699C11.4996 3.65557 9.26106 1.41699 6.49963 1.41699ZM6.49963 5.16699C6.84481 5.16699 7.12463 5.44681 7.12463 5.79199V8.91699C7.12463 9.26217 6.84481 9.54199 6.49963 9.54199C6.15446 9.54199 5.87463 9.26217 5.87463 8.91699V5.79199C5.87463 5.44681 6.15446 5.16699 6.49963 5.16699ZM6.49963 3.29199C6.84481 3.29199 7.12463 3.57181 7.12463 3.91699C7.12463 4.26217 6.84481 4.54199 6.49963 4.54199C6.15446 4.54199 5.87463 4.26217 5.87463 3.91699C5.87463 3.57181 6.15446 3.29199 6.49963 3.29199Z" fill="#7E84A3" fill-opacity="0.7"/>
</svg>
